<svg width="24" height="24" viewBox="0 0 24 24" fill="none" xmlns="http://www.w3.org/2000/svg">
<path fill-rule="evenodd" clip-rule="evenodd" d="M14 7C14 9.76142 11.7614 12 9 12C6.23858 12 4 9.76142 4 7C4 4.23858 6.23858 2 9 2C11.7614 2 14 4.23858 14 7ZM12 7C12 8.65685 10.6569 10 9 10C7.34315 10 6 8.65685 6 7C6 5.34315 7.34315 4 9 4C10.6569 4 12 5.34315 12 7Z" fill="#919191"/>
<path d="M9 13C7.11903 13 4.89292 13.3658 3.10719 14.5712C1.25921 15.8185 0 17.8887 0 21C0 21.5523 0.447715 22 1 22C1.55228 22 2 21.5523 2 21C2 18.5113 2.96301 17.0815 4.22614 16.2288C5.55152 15.3342 7.32542 15 9 15C10.6746 15 12.4485 15.3342 13.7739 16.2288C15.037 17.0815 16 18.5113 16 21C16 21.5523 16.4477 22 17 22C17.5523 22 18 21.5523 18 21C18 17.8887 16.7408 15.8185 14.8928 14.5712C13.1071 13.3658 10.881 13 9 13Z" fill="#919191"/>
<path fill-rule="evenodd" clip-rule="evenodd" d="M24 10.5C24 12.9853 21.9853 15 19.5 15C17.0147 15 15 12.9853 15 10.5C15 8.01472 17.0147 6 19.5 6C21.9853 6 24 8.01472 24 10.5ZM22 10.5C22 11.8807 20.8807 13 19.5 13C19.1776 13 18.8695 12.939 18.5865 12.8279L21.8279 9.58651C21.939 9.86948 22 10.1776 22 10.5ZM17.1722 11.4137L20.4137 8.17223C20.1307 8.06105 19.8225 8 19.5 8C18.1193 8 17 9.11929 17 10.5C17 10.8225 17.0611 11.1307 17.1722 11.4137Z" fill="#919191"/>
</svg>
