<svg width="21" height="24" viewBox="0 0 21 24" fill="none" xmlns="http://www.w3.org/2000/svg">
<path fill-rule="evenodd" clip-rule="evenodd" d="M10.0025 2.07136C10.0008 2.04779 10 2.02399 10 2V1C10 0.447715 10.4477 0 11 0C11.5523 0 12 0.447715 12 1V2C12 2.02401 11.9992 2.04782 11.9975 2.0714C13.9075 2.3489 15.4967 3.41406 16.6927 4.89311L19.0858 2.58579C19.4763 2.19526 20.1095 2.19526 20.5 2.58579C20.8905 2.97631 20.8905 3.60948 20.5 4L7.41421 17H17.4997C18.1859 17 18.6474 16.2968 18.3743 15.6673L18.3561 15.6253L17.2092 12.6104V12.2429C17.2092 11.3577 17.0819 10.4487 16.8418 9.57243L18.4291 7.98508C18.9393 9.35323 19.2092 10.8233 19.2092 12.2429L20.2092 14.8714C21.0265 16.7559 19.7193 18.8533 17.7123 18.9927L17.7101 19C16.8496 21.8915 14.171 24 11 24C8.1381 24 5.67734 22.2825 4.59215 19.8221L1.70711 22.7071C1.31658 23.0976 0.683418 23.0976 0.292893 22.7071C-0.0976311 22.3166 -0.0976311 21.6834 0.292893 21.2929L2.99476 18.591C1.77927 17.8689 1.16736 16.3083 1.79057 14.8714L2.79057 12.2429C2.79057 7.73742 5.50848 2.72411 10.0025 2.07136ZM10.9999 4C12.6907 4 14.1474 4.8486 15.2685 6.31726L4.58579 17H4.50006C3.81383 17 3.35235 16.2968 3.62541 15.6673L3.64361 15.6253L4.79057 12.6104V12.2429C4.79057 10.2228 5.45345 8.07809 6.60802 6.48301C7.74472 4.91263 9.24646 4 10.9999 4ZM15.584 19C14.8124 20.7659 13.0503 22 11 22C8.94968 22 7.1876 20.7659 6.41604 19H15.584Z" fill="#919191"/>
</svg>
