<svg width="32" height="32" viewBox="0 0 32 32" fill="none" xmlns="http://www.w3.org/2000/svg">
<g filter="url(#filter0_d_784_1077)">
<path fill-rule="evenodd" clip-rule="evenodd" d="M21.6567 4.34308C20.5959 4.34308 19.5785 3.92167 18.8284 3.17154C17.2663 1.60949 14.7337 1.60949 13.1716 3.17154C12.4215 3.92167 11.4041 4.34308 10.3433 4.34308C8.13409 4.34308 6.34314 6.13401 6.34314 8.34319C6.34314 9.40406 5.92171 10.4215 5.17157 11.1716C3.60947 12.7337 3.60948 15.2664 5.17158 16.8285C5.92171 17.5786 6.34314 18.5961 6.34314 19.6569C6.34314 21.866 8.13397 23.6568 10.3431 23.6568C11.4039 23.6568 12.4213 24.0783 13.1715 24.8284C14.7336 26.3905 17.2664 26.3905 18.8285 24.8284C19.5787 24.0783 20.5961 23.6568 21.6569 23.6568C23.866 23.6568 25.6569 21.866 25.6569 19.6569C25.6569 18.5961 26.0783 17.5786 26.8284 16.8285C28.3905 15.2664 28.3905 12.7337 26.8284 11.1716C26.0783 10.4215 25.6569 9.40406 25.6569 8.34319C25.6569 6.13401 23.8659 4.34308 21.6567 4.34308Z" fill="#EE6A57"/>
<path d="M18.4748 3.52509C19.3187 4.36899 20.4633 4.84308 21.6567 4.84308C23.5898 4.84308 25.1569 6.41015 25.1569 8.34319C25.1569 9.53667 25.631 10.6813 26.4749 11.5252C27.8417 12.892 27.8417 15.1081 26.4749 16.475C25.631 17.3189 25.1569 18.4634 25.1569 19.6569C25.1569 21.5899 23.5899 23.1568 21.6569 23.1568C20.4635 23.1568 19.3189 23.6309 18.475 24.4748C17.1081 25.8417 14.8919 25.8417 13.525 24.4748C12.6811 23.6309 11.5365 23.1568 10.3431 23.1568C8.41011 23.1568 6.84314 21.5899 6.84314 19.6569C6.84314 18.4634 6.36903 17.3189 5.52513 16.475C4.1583 15.1081 4.15829 12.892 5.52512 11.5252C6.36903 10.6813 6.84314 9.53667 6.84314 8.34319C6.84314 6.41015 8.41023 4.84308 10.3433 4.84308C11.5367 4.84308 12.6813 4.36899 13.5252 3.5251C14.892 2.1583 17.108 2.1583 18.4748 3.52509Z" stroke="white"/>
</g>
<path d="M14.275 18.5188L10 14.2438L11.0687 13.175L14.275 16.3813L21.1562 9.5L22.225 10.5688L14.275 18.5188Z" fill="white"/>
<defs>
<filter id="filter0_d_784_1077" x="0" y="0" width="32" height="32" filterUnits="userSpaceOnUse" color-interpolation-filters="sRGB">
<feFlood flood-opacity="0" result="BackgroundImageFix"/>
<feColorMatrix in="SourceAlpha" type="matrix" values="0 0 0 0 0 0 0 0 0 0 0 0 0 0 0 0 0 0 127 0" result="hardAlpha"/>
<feOffset dy="2"/>
<feGaussianBlur stdDeviation="2"/>
<feComposite in2="hardAlpha" operator="out"/>
<feColorMatrix type="matrix" values="0 0 0 0 0 0 0 0 0 0 0 0 0 0 0 0 0 0 0.25 0"/>
<feBlend mode="normal" in2="BackgroundImageFix" result="effect1_dropShadow_784_1077"/>
<feBlend mode="normal" in="SourceGraphic" in2="effect1_dropShadow_784_1077" result="shape"/>
</filter>
</defs>
</svg>
