<svg width="36" height="24" viewBox="0 0 36 24" fill="none" xmlns="http://www.w3.org/2000/svg">
<g filter="url(#filter0_dii_784_1167)">
<rect x="2" y="1" width="32" height="20" rx="4" fill="url(#paint0_linear_784_1167)" shape-rendering="crispEdges"/>
<rect x="2.5" y="1.5" width="31" height="19" rx="3.5" stroke="#9C856F" shape-rendering="crispEdges"/>
<path d="M16.352 6.624L13.28 15H11.24L8.168 6.624H9.968L12.272 13.284L14.564 6.624H16.352ZM19.0393 6.624V15H17.3593V6.624H19.0393ZM26.8071 9.216C26.8071 9.664 26.6991 10.084 26.4831 10.476C26.2751 10.868 25.9431 11.184 25.4871 11.424C25.0391 11.664 24.4711 11.784 23.7831 11.784H22.3791V15H20.6991V6.624H23.7831C24.4311 6.624 24.9831 6.736 25.4391 6.96C25.8951 7.184 26.2351 7.492 26.4591 7.884C26.6911 8.276 26.8071 8.72 26.8071 9.216ZM23.7111 10.428C24.1751 10.428 24.5191 10.324 24.7431 10.116C24.9671 9.9 25.0791 9.6 25.0791 9.216C25.0791 8.4 24.6231 7.992 23.7111 7.992H22.3791V10.428H23.7111Z" fill="white"/>
</g>
<defs>
<filter id="filter0_dii_784_1167" x="0.6" y="0.6" width="34.8" height="22.8" filterUnits="userSpaceOnUse" color-interpolation-filters="sRGB">
<feFlood flood-opacity="0" result="BackgroundImageFix"/>
<feColorMatrix in="SourceAlpha" type="matrix" values="0 0 0 0 0 0 0 0 0 0 0 0 0 0 0 0 0 0 127 0" result="hardAlpha"/>
<feOffset dy="1"/>
<feGaussianBlur stdDeviation="0.7"/>
<feComposite in2="hardAlpha" operator="out"/>
<feColorMatrix type="matrix" values="0 0 0 0 0 0 0 0 0 0 0 0 0 0 0 0 0 0 0.2 0"/>
<feBlend mode="normal" in2="BackgroundImageFix" result="effect1_dropShadow_784_1167"/>
<feBlend mode="normal" in="SourceGraphic" in2="effect1_dropShadow_784_1167" result="shape"/>
<feColorMatrix in="SourceAlpha" type="matrix" values="0 0 0 0 0 0 0 0 0 0 0 0 0 0 0 0 0 0 127 0" result="hardAlpha"/>
<feOffset dy="1"/>
<feGaussianBlur stdDeviation="0.2"/>
<feComposite in2="hardAlpha" operator="arithmetic" k2="-1" k3="1"/>
<feColorMatrix type="matrix" values="0 0 0 0 1 0 0 0 0 1 0 0 0 0 1 0 0 0 0.64 0"/>
<feBlend mode="normal" in2="shape" result="effect2_innerShadow_784_1167"/>
<feColorMatrix in="SourceAlpha" type="matrix" values="0 0 0 0 0 0 0 0 0 0 0 0 0 0 0 0 0 0 127 0" result="hardAlpha"/>
<feOffset dy="-1"/>
<feComposite in2="hardAlpha" operator="arithmetic" k2="-1" k3="1"/>
<feColorMatrix type="matrix" values="0 0 0 0 0 0 0 0 0 0 0 0 0 0 0 0 0 0 0.25 0"/>
<feBlend mode="normal" in2="effect2_innerShadow_784_1167" result="effect3_innerShadow_784_1167"/>
</filter>
<linearGradient id="paint0_linear_784_1167" x1="-0.571429" y1="1" x2="33.1962" y2="21.8395" gradientUnits="userSpaceOnUse">
<stop stop-color="#FFEA7F"/>
<stop offset="0.489583" stop-color="#744214"/>
<stop offset="0.791667" stop-color="#EEC765"/>
<stop offset="1" stop-color="#D39B5A"/>
</linearGradient>
</defs>
</svg>
